<?xml version="1.0" standalone="no"?>
<!DOCTYPE svg PUBLIC "-//W3C//DTD SVG 20010904//EN"
 "http://www.w3.org/TR/2001/REC-SVG-20010904/DTD/svg10.dtd">
<svg version="1.0" xmlns="http://www.w3.org/2000/svg"
 width="102.000000pt" height="102.000000pt" viewBox="0 0 102.000000 102.000000"
 preserveAspectRatio="xMidYMid meet">
<metadata>
Created by potrace 1.14, written by Peter Selinger 2001-2017
</metadata>
<g transform="translate(0.000000,102.000000) scale(0.100000,-0.100000)"
fill="#000000" stroke="none">
<path d="M121 1007 c-48 -15 -97 -66 -110 -112 -13 -49 -15 -702 -1 -759 11
-49 37 -85 81 -111 32 -19 54 -20 399 -22 386 -3 418 0 469 43 57 47 61 81 61
463 0 212 -4 361 -11 384 -14 51 -55 95 -104 112 -51 17 -730 20 -784 2z"/>
</g>
</svg>
